<svg width="31" height="31" viewBox="0 0 31 31" fill="none" xmlns="http://www.w3.org/2000/svg">
<path fill-rule="evenodd" clip-rule="evenodd" d="M15.251 2.51465C8.31061 2.51465 2.69043 8.1474 2.69043 15.0877C2.69043 22.0281 8.31061 27.6608 15.251 27.6608C22.2039 27.6608 27.8366 22.0281 27.8366 15.0877C27.8366 8.1474 22.2039 2.51465 15.251 2.51465ZM15.2638 25.1462C9.70648 25.1462 5.20532 20.6451 5.20532 15.0878C5.20532 9.53045 9.70648 5.02928 15.2638 5.02928C20.8211 5.02928 25.3223 9.53045 25.3223 15.0878C25.3223 20.6451 20.8211 25.1462 15.2638 25.1462ZM14.0062 8.80121H15.8922V15.4021L21.5501 18.7591L20.6071 20.3056L14.0062 16.3451V8.80121Z" fill="#2F80ED"/>
</svg>
