<svg width="76" height="76" viewBox="0 0 76 76" fill="none" xmlns="http://www.w3.org/2000/svg">
<path d="M76 38C76 58.9868 58.9868 76 38 76C17.0132 76 0 58.9868 0 38C0 17.0132 17.0132 0 38 0C58.9868 0 76 17.0132 76 38Z" fill="#8785FF"/>
<path fill-rule="evenodd" clip-rule="evenodd" d="M43.6295 26.741H25.3332C24.5591 26.741 23.9258 27.3743 23.9258 28.1484V47.8521L29.5554 42.2224H43.6295C44.4036 42.2224 45.0369 41.5891 45.0369 40.815V28.1484C45.0369 27.3743 44.4036 26.741 43.6295 26.741ZM42.2221 29.5557V39.4075H28.3873L27.5569 40.2379L26.7406 41.0542V29.5557H42.2221ZM47.8517 32.3706H50.6665C51.4406 32.3706 52.0739 33.004 52.0739 33.778V54.8891L46.4443 49.2595H30.9628C30.1887 49.2595 29.5554 48.6262 29.5554 47.8521V45.0373H47.8517V32.3706Z" fill="white"/>
</svg>
