<svg width="68" height="68" viewBox="0 0 68 68" fill="none" xmlns="http://www.w3.org/2000/svg">
<g filter="url(#filter0_d_1103_13016)">
<path d="M64 30C64 46.5685 50.5685 60 34 60C17.4315 60 4 46.5685 4 30C4 13.4315 17.4315 0 34 0C50.5685 0 64 13.4315 64 30Z" fill="#F2F2F2"/>
</g>
<path fill-rule="evenodd" clip-rule="evenodd" d="M25.1109 21.6665H45.1109C46.3331 21.6665 47.3331 22.6665 47.3331 23.8887V38.3332C47.3331 39.5554 46.3331 40.5554 45.1109 40.5554H25.1109C23.8887 40.5554 22.8887 39.5554 22.8887 38.3332V23.8887C22.8887 22.6665 23.8887 21.6665 25.1109 21.6665ZM25.1109 23.8887V38.3332H33.9998V23.8887H25.1109ZM45.1109 38.3332H36.222V23.8887H45.1109V38.3332ZM43.9998 27.7776H37.3331V29.4443H43.9998V27.7776ZM37.3331 30.5554H43.9998V32.2221H37.3331V30.5554ZM43.9998 33.3332H37.3331V34.9998H43.9998V33.3332Z" fill="#F8B76B"/>
<defs>
<filter id="filter0_d_1103_13016" x="0" y="0" width="68" height="68" filterUnits="userSpaceOnUse" color-interpolation-filters="sRGB">
<feFlood flood-opacity="0" result="BackgroundImageFix"/>
<feColorMatrix in="SourceAlpha" type="matrix" values="0 0 0 0 0 0 0 0 0 0 0 0 0 0 0 0 0 0 127 0" result="hardAlpha"/>
<feOffset dy="4"/>
<feGaussianBlur stdDeviation="2"/>
<feColorMatrix type="matrix" values="0 0 0 0 0 0 0 0 0 0 0 0 0 0 0 0 0 0 0.1 0"/>
<feBlend mode="normal" in2="BackgroundImageFix" result="effect1_dropShadow_1103_13016"/>
<feBlend mode="normal" in="SourceGraphic" in2="effect1_dropShadow_1103_13016" result="shape"/>
</filter>
</defs>
</svg>
